<?xml version="1.0" encoding="UTF-8"?>
<svg id="Layer_1" data-name="Layer 1" xmlns="http://www.w3.org/2000/svg" viewBox="0 0 228.95 62.51">
  <defs>
    <style>
      .cls-1 {
        fill: #f89a2d;
      }

      .cls-2 {
        fill: #181044;
      }
    </style>
  </defs>
  <g>
    <path class="cls-2" d="M66.71,25.25h4.24l3.29,12.4,3.3-12.4h3.79l3.56,12.4,3.03-12.4h4.13l-5.44,16.97h-4.03l-3.24-12.32-3.35,12.32h-4.03l-5.26-16.97Z"/>
    <path class="cls-2" d="M98.58,25.25h4.97l6.12,16.97h-4.13l-1.52-4.47h-6.2l-1.49,4.47h-4.03l6.28-16.97Zm4.55,9.78l-2.14-6.38h-.11l-2.14,6.38h4.39Z"/>
    <path class="cls-2" d="M115.48,28.15h-5.23v-2.9h14.51v2.9h-5.2v14.07h-4.08v-14.07Z"/>
    <path class="cls-2" d="M133.09,42.38c-.6-.07-1.26-.2-1.97-.39-.8-.21-1.46-.48-1.99-.82-.52-.34-.96-.81-1.31-1.43-.37-.61-.55-1.33-.55-2.17v-7.45c0-3.42,2.62-5.13,7.87-5.13,1.34,0,3.14,.19,5.39,.58v3.06c-2.02-.49-3.8-.73-5.33-.73-.65,0-1.15,.02-1.5,.05-.36,.04-.73,.12-1.11,.26-.82,.28-1.23,.9-1.23,1.86v7.22c0,1.53,1.4,2.3,4.21,2.3,1.2,0,2.89-.25,5.07-.76v3.09c-1.87,.38-3.7,.58-5.49,.58-.77,0-1.45-.03-2.05-.1Z"/>
    <path class="cls-2" d="M144.3,25.25h4.08v6.8h7.22v-6.8h4.08v16.97h-4.08v-7.27h-7.22v7.27h-4.08V25.25Z"/>
    <path class="cls-2" d="M164.38,25.25h5.81l4.18,12.13,4.13-12.13h5.47v16.97h-3.69v-12.55h-.08l-4.29,12.55h-3.27l-4.42-12.55h-.1v12.55h-3.74V25.25Z"/>
    <path class="cls-2" d="M193.18,25.25h4.97l6.12,16.97h-4.13l-1.52-4.47h-6.2l-1.49,4.47h-4.03l6.28-16.97Zm4.55,9.78l-2.14-6.38h-.11l-2.14,6.38h4.39Z"/>
    <path class="cls-2" d="M207.19,25.25h4.13l8.21,11.59v-11.59h3.63v16.97h-4.13l-8.21-11.77v11.77h-3.63V25.25Z"/>
  </g>
  <g>
    <path class="cls-1" d="M34.41,7.92L11.48,16.67v1.11c0,8.46,2.3,16.54,6.68,23.61,.38-1.56,.86-2.89,1.39-4.03-3.02-5.66-4.67-11.94-4.84-18.48l19.72-7.53,20.63,7.54c0,.18-.01,.36-.02,.55l-.03,.51c-.02,.39-.04,.77-.07,1.15l-.05,.57c-.04,.38-.08,.76-.12,1.15l-.06,.49c-.07,.53-.15,1.05-.23,1.57l-.02,.1c-.09,.51-.19,1.01-.3,1.52l-.11,.47c-.08,.37-.17,.74-.26,1.11l-.13,.51c-.1,.37-.2,.74-.31,1.11l-.13,.43c-.16,.51-.32,1.02-.5,1.52-.17,.5-.36,.98-.55,1.47l-.17,.42c-.14,.35-.29,.71-.45,1.06l-.2,.46c-.16,.36-.33,.71-.5,1.06l-.18,.37c-.47,.93-.98,1.86-1.52,2.76l-.22,.36c-.13,.22-.27,.43-.4,.64-.03-.08-.07-.15-.1-.22-.06-.14-.12-.27-.19-.41-.11-.24-.23-.47-.35-.7-.07-.13-.14-.26-.22-.39-.14-.24-.28-.47-.43-.69-.07-.11-.14-.22-.21-.33-.22-.32-.45-.63-.69-.93,0,0-.01-.02-.02-.03-.25-.31-.52-.6-.79-.88-.09-.09-.18-.18-.27-.26-.19-.19-.39-.38-.59-.56-.11-.1-.22-.19-.34-.28-.2-.16-.4-.32-.6-.47-.12-.09-.24-.18-.36-.26-.22-.15-.45-.3-.68-.44-.11-.07-.22-.14-.33-.2-.34-.2-.68-.38-1.04-.55,0,0-.01,0-.02,0-.36-.17-.73-.33-1.1-.47-.12-.05-.24-.08-.36-.13-.26-.09-.52-.18-.79-.26-.14-.04-.29-.08-.43-.12-.26-.07-.51-.12-.77-.18-.15-.03-.3-.06-.45-.08-.28-.05-.56-.08-.84-.11-.13-.01-.26-.03-.4-.04-.42-.03-.84-.06-1.26-.06s-.85,.02-1.26,.06c-.13,.01-.26,.03-.4,.04-.28,.03-.57,.07-.84,.11-.15,.03-.3,.05-.45,.08-.26,.05-.52,.11-.77,.18-.15,.04-.29,.07-.43,.12-.27,.08-.53,.16-.79,.26-.12,.04-.24,.08-.36,.13-.38,.14-.74,.3-1.1,.47,0,0,0,0-.01,0-.36,.17-.7,.36-1.04,.55-.11,.06-.22,.13-.32,.2-.23,.14-.46,.29-.68,.45-.12,.08-.24,.17-.35,.26-.21,.15-.41,.31-.61,.48-.11,.09-.22,.19-.33,.28-.2,.18-.4,.37-.6,.56-.09,.09-.18,.17-.27,.26-.28,.29-.54,.58-.79,.89,0,0,0,.01-.01,.02-.25,.3-.48,.61-.7,.94-.07,.1-.14,.21-.21,.32-.08,.12-.16,.24-.24,.36-.07,.11-.13,.22-.2,.34,.05-.08,.1-.16,.15-.23-.77,1.56-1.45,3.64-1.84,6.39h0s.26,.36,.26,.36c.05,.07,.1,.14,.15,.2,.02,.03,.05,.06,.07,.09,.65,.83,1.33,1.63,2.02,2.41,3.23,3.61,6.97,6.64,11.18,9.02l.79,.45,.79-.45c.56-.32,1.11-.65,1.66-.99l.41-.26c.53-.34,1.05-.68,1.56-1.04l.05-.03c.53-.37,1.04-.76,1.56-1.15l.36-.28c.49-.39,.98-.78,1.45-1.19h.02s.01-.03,.02-.03l.05-.04c.48-.41,.94-.84,1.4-1.27l.32-.3c.31-.3,.61-.61,.91-.92-.25-1.42-.57-2.65-.93-3.71-.71,.79-1.45,1.57-2.21,2.3l-.3,.28c-.43,.4-.86,.8-1.3,1.18l-.09,.07c-.44,.37-.88,.74-1.33,1.09l-.34,.27c-.46,.36-.93,.71-1.41,1.04l-.05,.03c-.48,.34-.98,.66-1.47,.98l-.38,.24c-.25,.15-.5,.31-.75,.46-4.34-2.58-8.13-5.92-11.29-9.93,.02-.07,.03-.15,.04-.22,.04-.15,.08-.31,.12-.46,.05-.18,.1-.36,.16-.53,.05-.15,.1-.3,.16-.45,.06-.17,.13-.34,.2-.5,.06-.15,.13-.29,.2-.43,.08-.16,.16-.32,.24-.47,.07-.14,.15-.28,.23-.41,.09-.15,.18-.3,.28-.44,.09-.13,.17-.26,.26-.39,.1-.14,.2-.28,.31-.41,.1-.12,.19-.25,.3-.37,.11-.13,.23-.26,.34-.38,.11-.12,.21-.23,.33-.34,.12-.12,.25-.24,.38-.35,.12-.1,.23-.21,.35-.31,.13-.11,.27-.21,.41-.32,.12-.09,.25-.19,.38-.28,.14-.1,.29-.19,.44-.28,.13-.08,.26-.17,.39-.24,.15-.09,.31-.17,.47-.25,.14-.07,.27-.14,.41-.21,.16-.08,.33-.14,.5-.21,.14-.06,.28-.12,.42-.17,.18-.06,.36-.12,.54-.17,.14-.04,.28-.09,.42-.13,.19-.05,.39-.09,.59-.13,.13-.03,.27-.06,.4-.09,.22-.04,.45-.06,.67-.09,.12-.01,.23-.03,.35-.04,.34-.03,.69-.05,1.04-.05s.7,.02,1.04,.05c.11,.01,.23,.03,.34,.04,.23,.03,.45,.05,.67,.09,.13,.02,.26,.06,.39,.09,.2,.04,.4,.08,.59,.13,.14,.04,.27,.08,.41,.13,.18,.06,.36,.11,.54,.18,.14,.05,.27,.11,.41,.16,.17,.07,.34,.14,.51,.22,.14,.06,.27,.13,.4,.2,.16,.08,.32,.16,.48,.25,.13,.07,.26,.16,.38,.24,.15,.09,.3,.19,.45,.29,.12,.09,.24,.18,.36,.27,.14,.11,.28,.21,.41,.33,.12,.1,.23,.2,.34,.3,.13,.12,.26,.24,.38,.36,.11,.11,.21,.22,.32,.33,.12,.13,.24,.26,.35,.39,.1,.12,.2,.23,.29,.35,.08,.1,.16,.21,.23,.31,.03,.04,.06,.07,.08,.11-.01-.02-.02-.03-.03-.05,1.31,1.59,2.65,3.99,3.54,7.52l.02,.08,.91-1.2s.01-.02,.02-.02l.35-.47,.25-.33c.07-.1,.14-.19,.22-.29l.05-.06h0c.05-.07,.11-.14,.16-.22l.23-.33c.25-.35,.49-.7,.73-1.05l.28-.43c.23-.35,.45-.7,.67-1.06l.24-.39c.58-.97,1.13-1.97,1.64-2.98l.19-.39c.18-.38,.36-.76,.54-1.14l.22-.49c.17-.38,.33-.76,.49-1.15l.18-.44c.21-.53,.41-1.05,.6-1.59,.19-.54,.37-1.09,.54-1.64l.14-.47c.12-.4,.23-.79,.34-1.2l.14-.56c.1-.4,.19-.79,.28-1.19l.11-.51c.12-.55,.23-1.1,.32-1.66v-.05c.11-.57,.19-1.15,.27-1.72,.02-.14,.04-.28,.05-.42v-.12c.06-.41,.11-.82,.15-1.24l.05-.61c.03-.41,.06-.83,.08-1.24l.03-.55c.02-.59,.04-1.19,.04-1.79v-1.12L34.41,7.92Z"/>
    <path class="cls-1" d="M34.78,28.76c3.5,0,6.33-2.83,6.33-6.33s-2.83-6.33-6.33-6.33-6.33,2.83-6.33,6.33,2.83,6.33,6.33,6.33Z"/>
    <path class="cls-1" d="M46.15,43.4h0s-.02-.08-.03-.13c0,.04,.02,.08,.03,.13Z"/>
  </g>
</svg>