<?xml version="1.0" encoding="utf-8"?>
<!-- Generator: Adobe Illustrator 27.0.0, SVG Export Plug-In . SVG Version: 6.00 Build 0)  -->
<svg version="1.1" id="Layer_1" xmlns="http://www.w3.org/2000/svg" xmlns:xlink="http://www.w3.org/1999/xlink" x="0px" y="0px"
	 viewBox="0 0 36.3 37.4" style="enable-background:new 0 0 36.3 37.4;" xml:space="preserve">
<style type="text/css">
	.st0{fill:#F89A2D;}
</style>
<g>
	<g>
		<path class="st0" d="M18.5,3.2L4.1,8.7v0.7c0,5.3,1.4,10.4,4.2,14.9c0.2-1,0.5-1.8,0.9-2.5c-1.9-3.6-2.9-7.5-3-11.6l12.4-4.7
			l13,4.7c0,0.1,0,0.2,0,0.3l0,0.3c0,0.2,0,0.5,0,0.7l0,0.4c0,0.2,0,0.5-0.1,0.7l0,0.3c0,0.3-0.1,0.7-0.1,1l0,0.1
			c-0.1,0.3-0.1,0.6-0.2,1l-0.1,0.3c-0.1,0.2-0.1,0.5-0.2,0.7l-0.1,0.3c-0.1,0.2-0.1,0.5-0.2,0.7l-0.1,0.3c-0.1,0.3-0.2,0.6-0.3,1
			c-0.1,0.3-0.2,0.6-0.3,0.9l-0.1,0.3c-0.1,0.2-0.2,0.4-0.3,0.7l-0.1,0.3c-0.1,0.2-0.2,0.4-0.3,0.7l-0.1,0.2c-0.3,0.6-0.6,1.2-1,1.7
			l-0.1,0.2c-0.1,0.1-0.2,0.3-0.3,0.4c0,0,0-0.1-0.1-0.1c0-0.1-0.1-0.2-0.1-0.3c-0.1-0.1-0.1-0.3-0.2-0.4c0-0.1-0.1-0.2-0.1-0.2
			c-0.1-0.1-0.2-0.3-0.3-0.4c0-0.1-0.1-0.1-0.1-0.2c-0.1-0.2-0.3-0.4-0.4-0.6c0,0,0,0,0,0c-0.2-0.2-0.3-0.4-0.5-0.6
			c-0.1-0.1-0.1-0.1-0.2-0.2c-0.1-0.1-0.2-0.2-0.4-0.4c-0.1-0.1-0.1-0.1-0.2-0.2c-0.1-0.1-0.3-0.2-0.4-0.3c-0.1-0.1-0.1-0.1-0.2-0.2
			c-0.1-0.1-0.3-0.2-0.4-0.3c-0.1,0-0.1-0.1-0.2-0.1c-0.2-0.1-0.4-0.2-0.7-0.3c0,0,0,0,0,0c-0.2-0.1-0.5-0.2-0.7-0.3
			c-0.1,0-0.2-0.1-0.2-0.1c-0.2-0.1-0.3-0.1-0.5-0.2c-0.1,0-0.2,0-0.3-0.1c-0.2,0-0.3-0.1-0.5-0.1c-0.1,0-0.2,0-0.3-0.1
			c-0.2,0-0.4-0.1-0.5-0.1c-0.1,0-0.2,0-0.2,0c-0.3,0-0.5,0-0.8,0c-0.3,0-0.5,0-0.8,0c-0.1,0-0.2,0-0.2,0c-0.2,0-0.4,0-0.5,0.1
			c-0.1,0-0.2,0-0.3,0.1c-0.2,0-0.3,0.1-0.5,0.1c-0.1,0-0.2,0-0.3,0.1c-0.2,0-0.3,0.1-0.5,0.2c-0.1,0-0.2,0.1-0.2,0.1
			c-0.2,0.1-0.5,0.2-0.7,0.3c0,0,0,0,0,0c-0.2,0.1-0.4,0.2-0.7,0.3c-0.1,0-0.1,0.1-0.2,0.1c-0.1,0.1-0.3,0.2-0.4,0.3
			c-0.1,0.1-0.1,0.1-0.2,0.2c-0.1,0.1-0.3,0.2-0.4,0.3c-0.1,0.1-0.1,0.1-0.2,0.2c-0.1,0.1-0.3,0.2-0.4,0.4c-0.1,0.1-0.1,0.1-0.2,0.2
			c-0.2,0.2-0.3,0.4-0.5,0.6c0,0,0,0,0,0c-0.2,0.2-0.3,0.4-0.4,0.6c0,0.1-0.1,0.1-0.1,0.2c-0.1,0.1-0.1,0.2-0.1,0.2
			c0,0.1-0.1,0.1-0.1,0.2c0-0.1,0.1-0.1,0.1-0.1c-0.5,1-0.9,2.3-1.2,4l0,0l0,0l0.2,0.2c0,0,0.1,0.1,0.1,0.1c0,0,0,0,0,0.1
			c0.4,0.5,0.8,1,1.3,1.5c2,2.3,4.4,4.2,7,5.7l0.5,0.3l0.5-0.3c0.4-0.2,0.7-0.4,1-0.6l0.3-0.2c0.3-0.2,0.7-0.4,1-0.7l0,0
			c0.3-0.2,0.7-0.5,1-0.7l0.2-0.2c0.3-0.2,0.6-0.5,0.9-0.7l0,0c0,0,0,0,0,0l0,0c0.3-0.3,0.6-0.5,0.9-0.8l0.2-0.2
			c0.2-0.2,0.4-0.4,0.6-0.6c-0.2-0.9-0.4-1.7-0.6-2.3c-0.4,0.5-0.9,1-1.4,1.4l-0.2,0.2c-0.3,0.3-0.5,0.5-0.8,0.7l-0.1,0
			c-0.3,0.2-0.6,0.5-0.8,0.7l-0.2,0.2c-0.3,0.2-0.6,0.4-0.9,0.7l0,0c-0.3,0.2-0.6,0.4-0.9,0.6l-0.2,0.1c-0.2,0.1-0.3,0.2-0.5,0.3
			c-2.7-1.6-5.1-3.7-7.1-6.3c0,0,0-0.1,0-0.1c0-0.1,0-0.2,0.1-0.3c0-0.1,0.1-0.2,0.1-0.3c0-0.1,0.1-0.2,0.1-0.3
			c0-0.1,0.1-0.2,0.1-0.3c0-0.1,0.1-0.2,0.1-0.3c0-0.1,0.1-0.2,0.2-0.3c0-0.1,0.1-0.2,0.1-0.3c0.1-0.1,0.1-0.2,0.2-0.3
			c0.1-0.1,0.1-0.2,0.2-0.2c0.1-0.1,0.1-0.2,0.2-0.3c0.1-0.1,0.1-0.2,0.2-0.2c0.1-0.1,0.1-0.2,0.2-0.2c0.1-0.1,0.1-0.1,0.2-0.2
			c0.1-0.1,0.2-0.1,0.2-0.2c0.1-0.1,0.1-0.1,0.2-0.2c0.1-0.1,0.2-0.1,0.3-0.2c0.1-0.1,0.2-0.1,0.2-0.2c0.1-0.1,0.2-0.1,0.3-0.2
			c0.1-0.1,0.2-0.1,0.2-0.2c0.1-0.1,0.2-0.1,0.3-0.2c0.1,0,0.2-0.1,0.3-0.1c0.1,0,0.2-0.1,0.3-0.1c0.1,0,0.2-0.1,0.3-0.1
			c0.1,0,0.2-0.1,0.3-0.1c0.1,0,0.2-0.1,0.3-0.1c0.1,0,0.2-0.1,0.4-0.1c0.1,0,0.2,0,0.3-0.1c0.1,0,0.3,0,0.4-0.1c0.1,0,0.1,0,0.2,0
			c0.2,0,0.4,0,0.7,0c0.2,0,0.4,0,0.7,0c0.1,0,0.1,0,0.2,0c0.1,0,0.3,0,0.4,0.1c0.1,0,0.2,0,0.2,0.1c0.1,0,0.2,0.1,0.4,0.1
			c0.1,0,0.2,0.1,0.3,0.1c0.1,0,0.2,0.1,0.3,0.1c0.1,0,0.2,0.1,0.3,0.1c0.1,0,0.2,0.1,0.3,0.1c0.1,0,0.2,0.1,0.3,0.1
			c0.1,0.1,0.2,0.1,0.3,0.2c0.1,0,0.2,0.1,0.2,0.1c0.1,0.1,0.2,0.1,0.3,0.2c0.1,0.1,0.2,0.1,0.2,0.2c0.1,0.1,0.2,0.1,0.3,0.2
			c0.1,0.1,0.1,0.1,0.2,0.2c0.1,0.1,0.2,0.1,0.2,0.2c0.1,0.1,0.1,0.1,0.2,0.2c0.1,0.1,0.1,0.2,0.2,0.2c0.1,0.1,0.1,0.1,0.2,0.2
			c0.1,0.1,0.1,0.1,0.1,0.2c0,0,0,0,0.1,0.1c0,0,0,0,0,0c0.8,1,1.7,2.5,2.2,4.7l0,0l0.6-0.8c0,0,0,0,0,0l0.2-0.3l0.2-0.2
			c0-0.1,0.1-0.1,0.1-0.2l0,0v0c0,0,0.1-0.1,0.1-0.1l0.1-0.2c0.2-0.2,0.3-0.4,0.5-0.7l0.2-0.3c0.1-0.2,0.3-0.4,0.4-0.7l0.2-0.2
			c0.4-0.6,0.7-1.2,1-1.9l0.1-0.2c0.1-0.2,0.2-0.5,0.3-0.7l0.1-0.3c0.1-0.2,0.2-0.5,0.3-0.7l0.1-0.3c0.1-0.3,0.3-0.7,0.4-1
			c0.1-0.3,0.2-0.7,0.3-1l0.1-0.3c0.1-0.2,0.1-0.5,0.2-0.8l0.1-0.4c0.1-0.2,0.1-0.5,0.2-0.8l0.1-0.3c0.1-0.3,0.1-0.7,0.2-1l0,0
			c0.1-0.4,0.1-0.7,0.2-1.1c0-0.1,0-0.2,0-0.3l0-0.1c0-0.3,0.1-0.5,0.1-0.8l0-0.4c0-0.3,0-0.5,0-0.8l0-0.3c0-0.4,0-0.7,0-1.1V8.7
			L18.5,3.2z"/>
		<path class="st0" d="M18.7,16.3c2.2,0,4-1.8,4-4c0-2.2-1.8-4-4-4s-4,1.8-4,4C14.8,14.5,16.5,16.3,18.7,16.3z"/>
		<path class="st0" d="M25.9,25.5L25.9,25.5C25.9,25.5,25.9,25.5,25.9,25.5C25.9,25.5,25.9,25.5,25.9,25.5z"/>
	</g>
</g>
</svg>
