<svg width="31" height="31" viewBox="0 0 31 31" fill="none" xmlns="http://www.w3.org/2000/svg">
<rect width="31" height="31" fill="white"/>
<path d="M18.5813 22.6589V23.3836H6.70196V6.70196H18.5813V12.4562C16.1269 12.8739 14.3007 15.0228 14.3007 17.5576C14.3007 18.3201 14.5174 19.3553 14.9298 20.0563L14.9298 20.0563L14.9311 20.0584C15.2403 20.5558 15.4326 20.8448 15.8558 21.2544C16.6122 21.9974 17.5626 22.4824 18.5813 22.6589ZM18.236 19.5279C18.3047 19.5965 18.4093 19.6508 18.5208 19.6508C18.6323 19.6508 18.7369 19.5965 18.8055 19.5279L22.1765 16.1569C22.2663 16.0671 22.3037 15.9598 22.2967 15.8546C22.2899 15.7521 22.2414 15.659 22.1732 15.5908C22.1049 15.5225 22.0118 15.4741 21.9093 15.4672C21.8041 15.4602 21.6968 15.4976 21.607 15.5874L18.5208 18.6737L17.3474 17.5003C17.2576 17.4105 17.1503 17.3731 17.0452 17.3801C16.9426 17.3869 16.8496 17.4354 16.7813 17.5037C16.713 17.5719 16.6646 17.665 16.6578 17.7675C16.6507 17.8727 16.6881 17.98 16.778 18.0698L18.236 19.5279ZM19.3833 12.3716V6.29429C19.3833 6.07854 19.2047 5.9 18.989 5.9H6.30767C6.08146 5.9 5.9 6.07566 5.9 6.29429V23.7913C5.9 24.0099 6.08146 24.1856 6.30767 24.1856H18.989C19.2047 24.1856 19.3833 24.007 19.3833 23.7913V22.7346C19.4137 22.7377 19.4485 22.7409 19.4839 22.7409C20.7213 22.7409 21.9066 22.2996 22.8499 21.4936L24.3459 23.002C24.3207 23.0265 24.2942 23.0514 24.2671 23.0771C24.2472 23.0959 24.2268 23.1151 24.2062 23.1348C24.1332 23.2047 24.0578 23.2802 23.999 23.3582C23.9409 23.4354 23.8912 23.5252 23.8831 23.624C23.8744 23.7291 23.9139 23.8279 24.0015 23.9155L26.9712 26.8852C27.1306 27.0446 27.3812 27.0446 27.5406 26.8852L28.8114 25.6144C28.9709 25.4549 28.9709 25.2043 28.8114 25.0449L25.8418 22.0752C25.7538 21.9873 25.654 21.9482 25.5483 21.957C25.4486 21.9654 25.3576 22.0153 25.2794 22.0745C25.2001 22.1344 25.1242 22.2113 25.0543 22.2868C25.0216 22.3222 24.9916 22.3557 24.9628 22.388C24.9501 22.4021 24.9377 22.4159 24.9254 22.4296L23.4196 20.9239C25.1565 18.8903 25.0676 15.8165 23.1396 13.8885C22.141 12.8899 20.8039 12.3461 19.3833 12.3716ZM16.3843 20.6439C13.6255 17.8851 15.6124 13.1764 19.4839 13.1764C20.6477 13.1764 21.7459 13.6339 22.57 14.4579C24.2702 16.1713 24.2699 18.9437 22.5706 20.6435C20.8303 22.3575 18.0841 22.3437 16.3843 20.6439ZM25.8309 23.2166L25.1418 23.9168L24.8563 23.6313L25.5565 22.9422L25.8309 23.2166ZM27.2559 26.0309L25.7118 24.4869L26.4132 23.7856L27.9572 25.3296L27.2559 26.0309ZM9.99969 9.02954H15.2969C15.4252 9.02954 15.5283 8.97931 15.5981 8.89901C15.6662 8.82072 15.6979 8.71951 15.6979 8.62187C15.6979 8.52423 15.6662 8.42303 15.5981 8.34473C15.5283 8.26444 15.4252 8.2142 15.2969 8.2142H9.99969C9.87145 8.2142 9.76832 8.26444 9.6985 8.34473C9.63042 8.42303 9.59871 8.52423 9.59871 8.62187C9.59871 8.71951 9.63042 8.82072 9.6985 8.89901C9.76832 8.97931 9.87145 9.02954 9.99969 9.02954ZM8.03329 10.9023H17.25C17.3774 10.9023 17.4804 10.8535 17.5505 10.7747C17.6189 10.6977 17.651 10.5979 17.651 10.5013C17.651 10.4048 17.6189 10.305 17.5505 10.228C17.4804 10.1491 17.3774 10.1003 17.25 10.1003H8.03329C7.90583 10.1003 7.80288 10.1491 7.73281 10.228C7.66438 10.305 7.63231 10.4048 7.63231 10.5013C7.63231 10.5979 7.66438 10.6977 7.73281 10.7747C7.80288 10.8535 7.90583 10.9023 8.03329 10.9023ZM8.03329 12.7885H17.25C17.3774 12.7885 17.4804 12.7397 17.5505 12.6608C17.6189 12.5838 17.651 12.484 17.651 12.3875C17.651 12.2909 17.6189 12.1911 17.5505 12.1141C17.4804 12.0353 17.3774 11.9865 17.25 11.9865H8.03329C7.90583 11.9865 7.80288 12.0353 7.73281 12.1141C7.66438 12.1911 7.63231 12.2909 7.63231 12.3875C7.63231 12.484 7.66438 12.5838 7.73281 12.6608C7.80288 12.7397 7.90583 12.7885 8.03329 12.7885ZM8.03329 14.6746H13.384C13.5123 14.6746 13.6154 14.6244 13.6852 14.5441C13.7533 14.4658 13.785 14.3646 13.785 14.2669C13.785 14.1693 13.7533 14.0681 13.6852 13.9898C13.6154 13.9095 13.5123 13.8593 13.384 13.8593H8.03329C7.90505 13.8593 7.80192 13.9095 7.73209 13.9898C7.66401 14.0681 7.63231 14.1693 7.63231 14.2669C7.63231 14.3646 7.66401 14.4658 7.73209 14.5441C7.80192 14.6244 7.90505 14.6746 8.03329 14.6746ZM8.03329 16.5474H13.384C13.5115 16.5474 13.6145 16.4986 13.6845 16.4197C13.753 16.3428 13.785 16.2429 13.785 16.1464C13.785 16.0498 13.753 15.95 13.6845 15.873C13.6145 15.7942 13.5115 15.7454 13.384 15.7454H8.03329C7.90583 15.7454 7.80288 15.7942 7.73281 15.873C7.66438 15.95 7.63231 16.0498 7.63231 16.1464C7.63231 16.2429 7.66438 16.3428 7.73281 16.4197C7.80288 16.4986 7.90583 16.5474 8.03329 16.5474ZM8.03329 18.4335H13.384C13.5115 18.4335 13.6145 18.3847 13.6845 18.3059C13.753 18.2289 13.785 18.1291 13.785 18.0325C13.785 17.936 13.753 17.8362 13.6845 17.7592C13.6145 17.6803 13.5115 17.6315 13.384 17.6315H8.03329C7.90583 17.6315 7.80288 17.6803 7.73281 17.7592C7.66438 17.8362 7.63231 17.936 7.63231 18.0325C7.63231 18.1291 7.66438 18.2289 7.73281 18.3059C7.80288 18.3847 7.90583 18.4335 8.03329 18.4335ZM8.03329 22.2058H12.3808C12.5994 22.2058 12.7751 22.0243 12.7751 21.7981V19.912C12.7751 19.6962 12.5965 19.5177 12.3808 19.5177H8.03329C7.80708 19.5177 7.62562 19.6933 7.62562 19.912V21.7981C7.62562 22.0273 7.80416 22.2058 8.03329 22.2058ZM11.9731 20.3196V21.3905H8.44096V20.3196H11.9731Z" fill="#F08D35" stroke="#F08D35" stroke-width="0.2"/>
</svg>
