<svg width="31" height="31" viewBox="0 0 31 31" fill="none" xmlns="http://www.w3.org/2000/svg">
<rect width="31" height="31" fill="white"/>
<path d="M19.0502 21.9727L17.1941 20.1166C16.6586 19.5811 15.7872 19.5811 15.2517 20.1166L14.4363 20.9321C12.5738 19.9567 11.0432 18.4262 10.0679 16.5637L10.8834 15.7482C11.4189 15.2127 11.4189 14.3413 10.8834 13.8058L9.02732 11.9497C8.49182 11.4142 7.62045 11.4142 7.08494 11.9497L5.60006 13.4346C4.82421 14.2105 4.79995 15.5782 5.53174 17.2857C6.19143 18.825 7.40221 20.5202 8.941 22.059C10.4798 23.5978 12.175 24.8085 13.7143 25.4682C14.5419 25.8229 15.2896 26 15.9288 26C16.6084 26 17.1655 25.7997 17.5653 25.3999L19.0502 23.9151C19.3097 23.6556 19.4525 23.3107 19.4525 22.9438C19.4525 22.5771 19.3097 22.2321 19.0502 21.9727ZM18.2215 23.0864L16.7366 24.5712C16.3345 24.9732 15.3774 24.9059 14.1759 24.391C12.7704 23.7887 11.2056 22.6662 9.76967 21.2303C8.33381 19.7944 7.21127 18.2296 6.60889 16.8241C6.09405 15.6227 6.02663 14.6654 6.42869 14.2634L7.91358 12.7785C7.99217 12.7 8.11998 12.7 8.19854 12.7785L10.0546 14.6346C10.1332 14.7132 10.1332 14.841 10.0546 14.9195L8.64897 16.3252L8.82576 16.6984C9.96076 19.0945 11.9054 21.0392 14.3016 22.1742L14.6748 22.351L16.0804 20.9453C16.1318 20.894 16.1918 20.8863 16.2229 20.8863C16.254 20.8863 16.314 20.894 16.3653 20.9453L18.2214 22.8014C18.2727 22.8527 18.2804 22.9127 18.2804 22.9438C18.2805 22.9751 18.2728 23.035 18.2215 23.0864Z" fill="#F08D35"/>
<path d="M23.1932 7.51414C22.0541 6.53773 20.5452 6 18.9445 6C17.3438 6 15.8349 6.53773 14.6957 7.51414C13.5308 8.51269 12.8892 9.84796 12.8892 11.274C12.8892 12.7 13.5308 14.0352 14.6957 15.0338C14.9045 15.2127 15.1258 15.3768 15.3577 15.5256C14.9295 16.1708 14.4289 16.7639 13.8658 17.2914C15.094 17.1898 16.2585 16.8644 17.3191 16.3567C17.842 16.4827 18.3877 16.548 18.9445 16.548C20.5452 16.548 22.0541 16.0102 23.1932 15.0338C24.3582 14.0353 24.9998 12.7 24.9998 11.274C24.9998 9.84796 24.3582 8.51273 23.1932 7.51414ZM18.9445 15.376C16.2518 15.376 14.0612 13.5358 14.0612 11.274C14.0612 9.01214 16.2518 7.17199 18.9445 7.17199C21.6371 7.17199 23.8278 9.01214 23.8278 11.274C23.8278 13.5358 21.6371 15.376 18.9445 15.376Z" fill="#F08D35"/>
<path d="M19.7556 8L19.6444 12.2791H18.3556L18.2444 8H19.7556ZM19 14C18.7259 14 18.4907 13.9486 18.2944 13.8459C18.0981 13.7432 18 13.6202 18 13.4767C18 13.3333 18.0981 13.2103 18.2944 13.1076C18.4907 13.0048 18.7259 12.9535 19 12.9535C19.2741 12.9535 19.5093 13.0048 19.7056 13.1076C19.9019 13.2103 20 13.3333 20 13.4767C20 13.5717 19.9537 13.6589 19.8611 13.7384C19.7722 13.8178 19.6519 13.8818 19.5 13.9302C19.3519 13.9767 19.1852 14 19 14Z" fill="#F08D35"/>
</svg>
