<svg width="31" height="31" viewBox="0 0 31 31" fill="none" xmlns="http://www.w3.org/2000/svg">
<rect width="31" height="31" fill="white"/>
<path d="M24.4617 16.0001C24.4617 16.0001 20.6924 21.3847 16.0001 21.3847C11.3078 21.3847 7.53857 16.0001 7.53857 16.0001C7.53857 16.0001 11.3078 10.6155 16.0001 10.6155C20.6924 10.6155 24.4617 16.0001 24.4617 16.0001Z" stroke="#F08D35" stroke-width="1.3" stroke-miterlimit="10" stroke-linecap="round" stroke-linejoin="round"/>
<path d="M16.0001 18.3078C17.2746 18.3078 18.3078 17.2746 18.3078 16.0001C18.3078 14.7256 17.2746 13.6924 16.0001 13.6924C14.7256 13.6924 13.6924 14.7256 13.6924 16.0001C13.6924 17.2746 14.7256 18.3078 16.0001 18.3078Z" stroke="#F08D35" stroke-width="1.3" stroke-miterlimit="10" stroke-linecap="round" stroke-linejoin="round"/>
<path d="M6 10.6154V6H10.6154" stroke="#F08D35" stroke-width="1.3" stroke-miterlimit="10" stroke-linecap="round" stroke-linejoin="round"/>
<path d="M10.6154 25.9999H6V21.3845" stroke="#F08D35" stroke-width="1.3" stroke-miterlimit="10" stroke-linecap="round" stroke-linejoin="round"/>
<path d="M26.0002 21.3845V25.9999H21.3848" stroke="#F08D35" stroke-width="1.3" stroke-miterlimit="10" stroke-linecap="round" stroke-linejoin="round"/>
<path d="M21.3848 6H26.0002V10.6154" stroke="#F08D35" stroke-width="1.3" stroke-miterlimit="10" stroke-linecap="round" stroke-linejoin="round"/>
</svg>
