<svg width="31" height="31" viewBox="0 0 31 31" fill="none" xmlns="http://www.w3.org/2000/svg">
<rect width="31" height="31" fill="white"/>
<path d="M21.7695 24.6923C22.7041 24.6923 23.4618 23.9346 23.4618 22.9999C23.4618 22.0653 22.7041 21.3076 21.7695 21.3076C20.8348 21.3076 20.0771 22.0653 20.0771 22.9999C20.0771 23.9346 20.8348 24.6923 21.7695 24.6923Z" stroke="#F08D35" stroke-width="1.3" stroke-miterlimit="10" stroke-linecap="round" stroke-linejoin="round"/>
<path d="M8.2309 24.6923C9.16554 24.6923 9.92322 23.9346 9.92322 22.9999C9.92322 22.0653 9.16554 21.3076 8.2309 21.3076C7.29625 21.3076 6.53857 22.0653 6.53857 22.9999C6.53857 23.9346 7.29625 24.6923 8.2309 24.6923Z" stroke="#F08D35" stroke-width="1.3" stroke-miterlimit="10" stroke-linecap="round" stroke-linejoin="round"/>
<path d="M17.5386 22.9999V13.6921H22.6155L26.0002 17.9229V22.9999H23.4617" stroke="#F08D35" stroke-width="1.3" stroke-miterlimit="10" stroke-linecap="round" stroke-linejoin="round"/>
<path d="M9.07696 15.3846C11.8809 15.3846 14.1539 13.1116 14.1539 10.3077C14.1539 7.50375 11.8809 5.23071 9.07696 5.23071C6.27303 5.23071 4 7.50375 4 10.3077C4 13.1116 6.27303 15.3846 9.07696 15.3846Z" stroke="#F08D35" stroke-width="1.3" stroke-miterlimit="10" stroke-linecap="round" stroke-linejoin="round"/>
<path d="M9.07715 7.76929V10.3078L10.7695 9.46161" stroke="#F08D35" stroke-width="1.3" stroke-miterlimit="10" stroke-linecap="round" stroke-linejoin="round"/>
<path d="M4 10.3074V22.9998H6.53848" stroke="#F08D35" stroke-width="1.3" stroke-miterlimit="10" stroke-linecap="round" stroke-linejoin="round"/>
<path d="M9.92285 22.9998H17.5383V10.3074H14.1537" stroke="#F08D35" stroke-width="1.3" stroke-miterlimit="10" stroke-linecap="round" stroke-linejoin="round"/>
</svg>
