<svg width="31" height="31" viewBox="0 0 31 31" fill="none" xmlns="http://www.w3.org/2000/svg">
<rect width="31" height="31" fill="white"/>
<path d="M2.90518 26.9667H10.0721C10.6211 26.9667 11.0773 26.5138 11.0773 25.9839V24.7993C11.0773 24.2694 10.6211 23.8165 10.0721 23.8165H2.90518C2.35781 23.8165 1.9 24.2454 1.9 24.7993V25.9839C1.9 26.5138 2.35615 26.9667 2.90518 26.9667ZM2.85245 24.8C2.85246 24.8 2.85246 24.8 2.85246 24.8C2.85259 24.8001 2.85374 24.7936 2.86351 24.7848C2.87391 24.7755 2.88868 24.769 2.90518 24.769H10.0721C10.0728 24.769 10.0775 24.7693 10.0858 24.7727C10.0937 24.776 10.1023 24.7811 10.1098 24.7874C10.1175 24.7938 10.1223 24.7997 10.1246 24.8036C10.1247 24.8037 10.1247 24.8039 10.1248 24.804V25.9786C10.1228 25.9819 10.1185 25.987 10.1113 25.9928C10.1039 25.9986 10.0955 26.0035 10.0874 26.0067C10.079 26.01 10.0737 26.0105 10.0721 26.0105H2.90518C2.88703 26.0105 2.87191 26.0038 2.86208 25.9953C2.85417 25.9885 2.85268 25.9835 2.85245 25.9828V24.8Z" fill="#F08D35" stroke="#F08D35" stroke-width="0.2"/>
<path d="M3.63545 24.769H9.2565C9.52383 24.769 9.7472 24.5552 9.72155 24.2767V14.3581C9.72155 13.0551 8.64505 11.9747 7.33811 11.9747H5.53148C4.22837 11.9747 3.14805 13.055 3.14805 14.3581V24.2816C3.14805 24.5529 3.36417 24.769 3.63545 24.769ZM8.78772 14.3581V23.8165H4.12285V14.3581C4.12285 13.5715 4.76721 12.9272 5.55383 12.9272H7.36046C8.14677 12.9272 8.78772 13.5712 8.78772 14.3581Z" fill="#F08D35" stroke="#F08D35" stroke-width="0.2"/>
<path d="M4.8502 15.7364C4.8502 16.6084 5.56272 17.319 6.4551 17.319C7.32967 17.319 8.04138 16.6076 8.04138 15.7364C8.04138 14.8403 7.3308 14.1278 6.4551 14.1278C5.56158 14.1278 4.8502 14.8395 4.8502 15.7364ZM5.80265 15.7364C5.80265 15.3816 6.10462 15.0802 6.4551 15.0802C6.80576 15.0802 7.08893 15.378 7.08893 15.7364C7.08893 16.0869 6.80996 16.3665 6.4551 16.3665C6.10035 16.3665 5.80265 16.0833 5.80265 15.7364Z" fill="#F08D35" stroke="#F08D35" stroke-width="0.2"/>
<path d="M27.556 10.5794C27.5588 10.5874 27.5605 10.5925 27.5618 10.5966V10.6019L27.5654 10.6148C27.722 11.187 27.3888 11.7582 26.8381 11.915C26.8378 11.915 26.8376 11.9151 26.8373 11.9152L9.1242 16.6488C8.87793 16.7068 8.71174 16.9777 8.79174 17.2285C8.84951 17.4447 9.03953 17.5797 9.25651 17.5797H9.25675H9.25699H9.25723H9.25746H9.2577H9.25794H9.25818H9.25841H9.25865H9.25889H9.25912H9.25936H9.25959H9.25983H9.26006H9.2603H9.26053H9.26076H9.26099H9.26123H9.26146H9.26169H9.26192H9.26215H9.26238H9.26261H9.26284H9.26307H9.2633H9.26353H9.26375H9.26398H9.26421H9.26444H9.26466H9.26489H9.26511H9.26534H9.26557H9.26579H9.26601H9.26624H9.26646H9.26669H9.26691H9.26713H9.26735H9.26757H9.2678H9.26802H9.26824H9.26846H9.26868H9.2689H9.26912H9.26934H9.26956H9.26978H9.26999H9.27021H9.27043H9.27065H9.27086H9.27108H9.2713H9.27151H9.27173H9.27194H9.27216H9.27237H9.27259H9.2728H9.27302H9.27323H9.27344H9.27366H9.27387H9.27408H9.2743H9.27451H9.27472H9.27493H9.27514H9.27535H9.27556H9.27577H9.27598H9.27619H9.2764H9.27661H9.27682H9.27703H9.27724H9.27745H9.27765H9.27786H9.27807H9.27828H9.27848H9.27869H9.2789H9.2791H9.27931H9.27952H9.27972H9.27993H9.28013H9.28034H9.28054H9.28074H9.28095H9.28115H9.28136H9.28156H9.28176H9.28197H9.28217H9.28237H9.28257H9.28278H9.28298H9.28318H9.28338H9.28358H9.28378H9.28399H9.28419H9.28439H9.28459H9.28479H9.28499H9.28519H9.28539H9.28559H9.28579H9.28599H9.28618H9.28638H9.28658H9.28678H9.28698H9.28718H9.28737H9.28757H9.28777H9.28797H9.28816H9.28836H9.28856H9.28876H9.28895H9.28915H9.28935H9.28954H9.28974H9.28993H9.29013H9.29032H9.29052H9.29072H9.29091H9.29111H9.2913H9.2915H9.29169H9.29189H9.29208H9.29227H9.29247H9.29266H9.29286H9.29305H9.29324H9.29344H9.29363H9.29383H9.29402H9.29421H9.29441H9.2946H9.29479H9.29498H9.29518H9.29537H9.29556H9.29575H9.29595H9.29614H9.29633H9.29652H9.29672H9.29691H9.2971H9.29729H9.29748H9.29768H9.29787H9.29806H9.29825H9.29844H9.29863H9.29882H9.29902H9.29921H9.2994H9.29959H9.29978H9.29997H9.30016H9.30035H9.30054H9.30074H9.30093H9.30112H9.30131H9.3015H9.30169H9.30188H9.30207H9.30226H9.30245H9.30264H9.30283H9.30302H9.30321H9.30341H9.3036H9.30379H9.30398H9.30417H9.30436H9.30455H9.30474H9.30493H9.30512H9.30531H9.3055H9.30569H9.30588H9.30607H9.30626H9.30645H9.30664H9.30683H9.30702H9.30722H9.30741H9.3076H9.30779H9.30798H9.30817H9.30836H9.30855H9.30874H9.30893H9.30912H9.30931H9.30951H9.3097H9.30989H9.31008H9.31027H9.31046H9.31065H9.31084H9.31104H9.31123H9.31142H9.31161H9.3118H9.31199H9.31219H9.31238H9.31257H9.31276H9.31295H9.31315H9.31334H9.31353H9.31372H9.31392H9.31411H9.3143H9.31449H9.31469H9.31488H9.31507H9.31527H9.31546H9.31565H9.31585H9.31604H9.31623H9.31643H9.31662H9.31682H9.31701H9.3172H9.3174H9.31759H9.31779H9.31798H9.31818H9.31837H9.31857H9.31876H9.31896H9.31916H9.31935H9.31955H9.31974H9.31994H9.32014H9.32033H9.32053H9.32073H9.32092H9.32112H9.32132H9.32151H9.32171H9.32191H9.32211H9.3223H9.3225H9.3227H9.3229H9.3231H9.3233H9.3235H9.3237H9.3239H9.32409H9.32429H9.32449H9.32469H9.3249H9.3251H9.3253H9.3255H9.3257H9.3259H9.3261H9.3263H9.3265H9.32671H9.32691H9.32711H9.32731H9.32752H9.32772H9.32792H9.32813H9.32833H9.32854H9.32874H9.32894H9.32915H9.32935H9.32956H9.32976H9.32997H9.33018H9.33038H9.33059H9.3308H9.331H9.33121H9.33142H9.33162H9.33183H9.33204H9.33225H9.33246H9.33267H9.33288H9.33309H9.33329H9.3335H9.33371H9.33393H9.33414H9.33435H9.33456H9.33477H9.33498H9.33519H9.33541H9.33562H9.33583H9.33605H9.33626H9.33647H9.33669H9.3369H9.33712H9.33733H9.33755H9.33776H9.33798H9.33819H9.33841H9.33863H9.33885H9.33906H9.33928H9.3395H9.33972H9.33994H9.34015H9.34037H9.34059H9.34081H9.34103H9.34126H9.34148H9.3417H9.34192H9.34214H9.34236H9.34259H9.34281H9.34303H9.34326H9.34348H9.34371H9.34393H9.34416H9.34438H9.34461H9.34483H9.34506H9.34529H9.34552H9.34574H9.34597H9.3462H9.34643H9.34666H9.34689H9.34712H9.34735H9.34758H9.34781H9.34804H9.34827H9.34851H9.34874H9.34897H9.3492H9.34944H9.34967H9.34991H9.35014H9.35038H9.35061H9.35085H9.35109H9.35132H9.35156H9.3518H9.35204H9.35228H9.35252H9.35276H9.353H9.35324H9.35348H9.35372H9.35396H9.3542H9.35445H9.35469H9.35493H9.35518H9.35542H9.35567H9.35591H9.35616H9.3564H9.35665H9.3569H9.35715H9.35739H9.35764H9.35789H9.35814H9.35839H9.35864H9.35889H9.35914H9.35939H9.35965H9.3599H9.36015H9.36041H9.36066H9.36092H9.36117H9.36143H9.36168H9.36194H9.3622H9.36245H9.36271H9.36297H9.36323H9.36349H9.36375H9.36401H9.36427H9.36453H9.37767L9.39037 17.5763L27.1058 12.8383C27.1059 12.8382 27.1061 12.8382 27.1062 12.8382C28.1468 12.568 28.7801 11.5075 28.5366 10.45C28.5326 10.0095 28.3031 9.599 27.9384 9.32431C27.4391 8.93927 26.7183 8.80849 26.0882 8.96408L26.0882 8.96406L26.0863 8.96456L9.1242 13.5049C8.87836 13.5628 8.71232 13.8329 8.79132 14.0832C8.85044 14.3277 9.12044 14.4935 9.37127 14.4092L26.2669 9.88827C26.6063 9.80915 27.0467 9.8914 27.2989 10.0864L27.2988 10.0866L27.3042 10.0903C27.4718 10.2031 27.5395 10.3441 27.5395 10.5027C27.5395 10.5222 27.5439 10.5398 27.5465 10.5494C27.5496 10.5605 27.5533 10.5715 27.556 10.5794Z" fill="#F08D35" stroke="#F08D35" stroke-width="0.2"/>
<path d="M10.9021 13.4978L10.902 13.4978L10.9027 13.5005L11.6772 16.4682C11.7301 16.6916 11.926 16.8272 12.1393 16.8272C12.1811 16.8272 12.2135 16.816 12.2405 16.8022C12.2523 16.7961 12.2632 16.7894 12.2713 16.7845L12.2717 16.7842L12.2719 16.7841C12.2767 16.7812 12.2809 16.7786 12.2849 16.7762C12.5323 16.7098 12.6555 16.4417 12.6018 16.2093L12.6019 16.2093L12.601 16.2058L11.808 13.2572C11.7475 13.0002 11.47 12.8734 11.2358 12.923L11.2358 12.923L11.234 12.9234C10.9758 12.983 10.8476 13.2616 10.9021 13.4978ZM9.91274 13.7607L10.7089 16.7073C10.7622 16.9269 10.9581 17.0619 11.1708 17.0619H11.1721C11.1958 17.0619 11.2505 17.0619 11.3116 17.0346C11.5541 16.9758 11.7151 16.7071 11.6315 16.4593L10.817 13.5139C10.7591 13.2691 10.4898 13.1023 10.2389 13.1851C9.99117 13.2414 9.83363 13.5134 9.91274 13.7607Z" fill="#F08D35" stroke="#F08D35" stroke-width="0.2"/>
<path d="M14.4518 12.5462L14.4516 12.5462L14.4531 12.5516L15.25 15.5011C15.3072 15.7237 15.4989 15.8551 15.7155 15.8551H15.7164C15.726 15.8551 15.7477 15.8551 15.7711 15.8517C15.7872 15.8494 15.8147 15.8443 15.8417 15.8293C16.0878 15.7612 16.2089 15.4901 16.1557 15.2595L16.1557 15.2595L16.1548 15.2559L15.3583 12.3082C15.3014 12.0482 15.0211 11.9279 14.7896 11.9769L14.7896 11.9769L14.7879 11.9773C14.5304 12.0367 14.4019 12.3105 14.4518 12.5462ZM13.4852 12.8147L14.2816 15.7621C14.3386 15.9797 14.5292 16.1158 14.747 16.1158C14.7492 16.1158 14.7514 16.1158 14.7538 16.1158C14.784 16.1161 14.8327 16.1164 14.8788 16.0848C15.1134 16.0165 15.2633 15.757 15.1856 15.5143L14.3898 12.5689C14.3356 12.3215 14.0645 12.1567 13.815 12.2354C13.5701 12.2946 13.4052 12.5647 13.4852 12.8147Z" fill="#F08D35" stroke="#F08D35" stroke-width="0.2"/>
<path d="M17.3933 11.2653L17.3933 11.2653L17.3915 11.2657C17.1447 11.3227 16.9764 11.5944 17.0612 11.8467L17.8571 14.8109C17.9105 15.0355 18.1076 15.1658 18.3192 15.1658C18.352 15.1658 18.3836 15.1541 18.4046 15.1442C18.4198 15.1371 18.4364 15.1276 18.4521 15.1158C18.6844 15.0474 18.8399 14.7896 18.7576 14.545L17.9654 11.5996C17.9049 11.3426 17.6275 11.2158 17.3933 11.2653ZM18.052 11.5857L18.8256 14.5315C18.8788 14.7513 19.0748 14.8864 19.2877 14.8864L19.2908 14.8865C19.3106 14.8865 19.333 14.8865 19.3562 14.8831C19.3803 14.8795 19.4024 14.8729 19.4265 14.8633C19.6688 14.8022 19.8324 14.5337 19.7484 14.2842L18.953 11.3404C18.8979 11.0671 18.6207 10.933 18.378 11.0097C18.1346 11.0686 17.9675 11.3341 18.052 11.5857Z" fill="#F08D35" stroke="#F08D35" stroke-width="0.2"/>
<path d="M20.9696 10.2968L20.9696 10.2968L20.9678 10.2972C20.7205 10.3542 20.5532 10.626 20.6336 10.8774L21.43 13.8433C21.487 14.0654 21.6782 14.1973 21.8917 14.1973H21.8933C21.9378 14.1973 21.9763 14.1973 22.0319 14.1737C22.274 14.1119 22.4359 13.8437 22.3563 13.5955L21.5379 10.6307C21.4775 10.3747 21.2046 10.2471 20.9696 10.2968ZM22.9683 13.9179H22.9787L22.989 13.9157C23.2385 13.8629 23.4052 13.5896 23.3249 13.3387L22.5289 10.3926C22.4684 10.136 22.1912 10.0085 21.9558 10.0623C21.7052 10.1159 21.545 10.3898 21.6244 10.6387L22.3984 13.5861L22.4952 13.5609L22.3985 13.5863L22.3984 13.5861C22.4551 13.8034 22.6454 13.9403 22.8602 13.9403C22.8998 13.9403 22.9298 13.93 22.9471 13.924L22.9481 13.9237C22.965 13.9179 22.9666 13.9179 22.9681 13.9179L22.9683 13.9179Z" fill="#F08D35" stroke="#F08D35" stroke-width="0.2"/>
<path d="M25.5759 13.229H25.5863L25.5966 13.2269C25.8478 13.1737 26.0085 12.8992 25.9288 12.6499L25.1329 9.70449C25.0765 9.4463 24.7978 9.3198 24.5634 9.37341C24.3144 9.42665 24.1483 9.69942 24.2283 9.94995L25.0023 12.8749C25.0023 12.8749 25.0023 12.875 25.0023 12.8751C25.0592 13.0928 25.2499 13.229 25.4678 13.229H25.4681H25.4683H25.4686H25.4688H25.469H25.4693H25.4695H25.4697H25.47H25.4702H25.4704H25.4707H25.4709H25.4712H25.4714H25.4716H25.4719H25.4721H25.4723H25.4726H25.4728H25.473H25.4732H25.4735H25.4737H25.4739H25.4742H25.4744H25.4746H25.4749H25.4751H25.4753H25.4755H25.4758H25.476H25.4762H25.4764H25.4767H25.4769H25.4771H25.4773H25.4776H25.4778H25.478H25.4782H25.4785H25.4787H25.4789H25.4791H25.4793H25.4796H25.4798H25.48H25.4802H25.4804H25.4807H25.4809H25.4811H25.4813H25.4815H25.4818H25.482H25.4822H25.4824H25.4826H25.4828H25.4831H25.4833H25.4835H25.4837H25.4839H25.4841H25.4843H25.4846H25.4848H25.485H25.4852H25.4854H25.4856H25.4858H25.486H25.4863H25.4865H25.4867H25.4869H25.4871H25.4873H25.4875H25.4877H25.4879H25.4881H25.4884H25.4886H25.4888H25.489H25.4892H25.4894H25.4896H25.4898H25.49H25.4902H25.4904H25.4906H25.4908H25.491H25.4913H25.4915H25.4917H25.4919H25.4921H25.4923H25.4925H25.4927H25.4929H25.4931H25.4933H25.4935H25.4937H25.4939H25.4941H25.4943H25.4945H25.4947H25.4949H25.4951H25.4953H25.4955H25.4957H25.4959H25.4961H25.4963H25.4965H25.4967H25.4969H25.4971H25.4973H25.4975H25.4977H25.4979H25.4981H25.4983H25.4985H25.4987H25.4989H25.4991H25.4993H25.4995H25.4997H25.4999H25.5001H25.5003H25.5005H25.5007H25.5009H25.5011H25.5013H25.5015H25.5017H25.5018H25.502H25.5022H25.5024H25.5026H25.5028H25.503H25.5032H25.5034H25.5036H25.5038H25.504H25.5042H25.5044H25.5046H25.5048H25.505H25.5052H25.5053H25.5055H25.5057H25.5059H25.5061H25.5063H25.5065H25.5067H25.5069H25.5071H25.5073H25.5075H25.5077H25.5079H25.508H25.5082H25.5084H25.5086H25.5088H25.509H25.5092H25.5094H25.5096H25.5098H25.51H25.5102H25.5103H25.5105H25.5107H25.5109H25.5111H25.5113H25.5115H25.5117H25.5119H25.5121H25.5123H25.5124H25.5126H25.5128H25.513H25.5132H25.5134H25.5136H25.5138H25.514H25.5142H25.5144H25.5145H25.5147H25.5149H25.5151H25.5153H25.5155H25.5157H25.5159H25.5161H25.5163H25.5164H25.5166H25.5168H25.517H25.5172H25.5174H25.5176H25.5178H25.518H25.5182H25.5184H25.5185H25.5187H25.5189H25.5191H25.5193H25.5195H25.5197H25.5199H25.5201H25.5203H25.5205H25.5206H25.5208H25.521H25.5212H25.5214H25.5216H25.5218H25.522H25.5222H25.5224H25.5226H25.5227H25.5229H25.5231H25.5233H25.5235H25.5237H25.5239H25.5241H25.5243H25.5245H25.5247H25.5249H25.5251H25.5252H25.5254H25.5256H25.5258H25.526H25.5262H25.5264H25.5266H25.5268H25.527H25.5272H25.5274H25.5276H25.5278H25.5279H25.5281H25.5283H25.5285H25.5287H25.5289H25.5291H25.5293H25.5295H25.5297H25.5299H25.5301H25.5303H25.5305H25.5307H25.5309H25.5311H25.5313H25.5315H25.5317H25.5319H25.5321H25.5322H25.5324H25.5326H25.5328H25.533H25.5332H25.5334H25.5336H25.5338H25.534H25.5342H25.5344H25.5346H25.5348H25.535H25.5352H25.5354H25.5356H25.5358H25.536H25.5362H25.5364H25.5366H25.5368H25.537H25.5372H25.5374H25.5376H25.5378H25.538H25.5382H25.5384H25.5386H25.5388H25.539H25.5393H25.5395H25.5397H25.5399H25.5401H25.5403H25.5405H25.5407H25.5409H25.5411H25.5413H25.5415H25.5417H25.5419H25.5421H25.5423H25.5425H25.5427H25.543H25.5432H25.5434H25.5436H25.5438H25.544H25.5442H25.5444H25.5446H25.5448H25.545H25.5453H25.5455H25.5457H25.5459H25.5461H25.5463H25.5465H25.5467H25.5469H25.5472H25.5474H25.5476H25.5478H25.548H25.5482H25.5484H25.5487H25.5489H25.5491H25.5493H25.5495H25.5497H25.55H25.5502H25.5504H25.5506H25.5508H25.551H25.5513H25.5515H25.5517H25.5519H25.5521H25.5524H25.5526H25.5528H25.553H25.5532H25.5535H25.5537H25.5539H25.5541H25.5544H25.5546H25.5548H25.555H25.5553H25.5555H25.5557H25.5559H25.5562H25.5564H25.5566H25.5568H25.5571H25.5573H25.5575H25.5578H25.558H25.5582H25.5584H25.5587H25.5589H25.5591H25.5594H25.5596H25.5598H25.5601H25.5603H25.5605H25.5608H25.561H25.5612H25.5615H25.5617H25.5619H25.5622H25.5624H25.5627H25.5629H25.5631H25.5634H25.5636H25.5638H25.5641H25.5643H25.5646H25.5648H25.565H25.5653H25.5655H25.5658H25.566H25.5663H25.5665H25.5667H25.567H25.5672H25.5675H25.5677H25.568H25.5682H25.5685H25.5687H25.569H25.5692H25.5695H25.5697H25.57H25.5702H25.5705H25.5707H25.571H25.5712H25.5715H25.5717H25.572H25.5722H25.5725H25.5728H25.573H25.5733H25.5735H25.5738H25.574H25.5743H25.5746H25.5748H25.5751H25.5753H25.5756H25.5759ZM25.9933 12.6183C26.0502 12.8359 26.2409 12.972 26.4587 12.972L26.4596 12.972C26.4693 12.972 26.4922 12.972 26.517 12.9678C26.5341 12.9648 26.5613 12.9585 26.5877 12.942C26.8258 12.8777 26.9746 12.6122 26.8973 12.3705L26.1014 9.42511C26.045 9.16692 25.7663 9.04043 25.5319 9.09403C25.2828 9.14729 25.1167 9.42024 25.1969 9.67083L25.9933 12.6183Z" fill="#F08D35" stroke="#F08D35" stroke-width="0.2"/>
</svg>
