<svg width="31" height="31" viewBox="0 0 31 31" fill="none" xmlns="http://www.w3.org/2000/svg">
<rect width="31" height="31" fill="white"/>
<path d="M6 7.525H5.9V7.625V26V26.1H6H20.875H20.975V26V23.475H23.5H23.6V23.375V5V4.9H23.5H8.625H8.525V5V7.525H6ZM16.9375 11.6625H19.9V23.375V25.025H6.975V8.6H8.625H16.8375V11.5625V11.6625H16.9375ZM17.5561 7.525H9.6V5.975H22.525V22.4H20.975V10.9439V10.9025L20.9457 10.8732L17.6268 7.55429L17.5975 7.525H17.5561ZM17.9125 10.5875V9.36005L19.14 10.5875H17.9125Z" fill="#F08D35" stroke="#F08D35" stroke-width="0.2"/>
<path d="M8.625 13.2125H8.525V13.3125V14.1875V14.2875H8.625H18.25H18.35V14.1875V13.3125V13.2125H18.25H8.625Z" fill="#F08D35" stroke="#F08D35" stroke-width="0.2"/>
<path d="M8.625 15.8375H8.525V15.9375V16.8125V16.9125H8.625H18.25H18.35V16.8125V15.9375V15.8375H18.25H8.625Z" fill="#F08D35" stroke="#F08D35" stroke-width="0.2"/>
<path d="M8.625 18.4625H8.525V18.5625V19.4375V19.5375H8.625H18.25H18.35V19.4375V18.5625V18.4625H18.25H8.625Z" fill="#F08D35" stroke="#F08D35" stroke-width="0.2"/>
<path d="M8.625 21.9625H8.525V22.0625V22.9375V23.0375H8.625H12.5625H12.6625V22.9375V22.0625V21.9625H12.5625H8.625Z" fill="#F08D35" stroke="#F08D35" stroke-width="0.2"/>
<path d="M14.3125 21.9625H14.2125V22.0625V22.9375V23.0375H14.3125H18.25H18.35V22.9375V22.0625V21.9625H18.25H14.3125Z" fill="#F08D35" stroke="#F08D35" stroke-width="0.2"/>
<path d="M11.6875 10.5875H11.5875V10.6875V11.5625V11.6625H11.6875H15.1875H15.2875V11.5625V10.6875V10.5875H15.1875H11.6875Z" fill="#F08D35" stroke="#F08D35" stroke-width="0.2"/>
</svg>
