<svg width="31" height="31" viewBox="0 0 31 31" fill="none" xmlns="http://www.w3.org/2000/svg">
<rect width="31" height="31" fill="white"/>
<path fill-rule="evenodd" clip-rule="evenodd" d="M14.4675 18.0299C14.3386 18.0299 14.2097 17.9654 14.1066 17.8752L12.6889 16.4446C12.1992 15.9678 12.9338 15.246 13.4107 15.7229L14.4675 16.7797L17.1224 14.1248C17.6122 13.6479 18.3339 14.3697 17.8571 14.8465L14.8412 17.8752C14.7381 17.9654 14.6093 18.0299 14.4675 18.0299ZM15.2665 27C15.2279 27 15.1763 26.9871 15.1377 26.9742C10.5882 25.7756 8.34564 22.9402 7.26303 20.7622C6.09022 18.4165 6 16.3544 6 16.2642V6.97188C6 6.58524 6.42531 6.32748 6.77329 6.53368C9.93087 8.35091 13.7973 6.04394 14.9443 5.11599C15.1377 4.96134 15.4083 4.96134 15.5888 5.11599C16.7487 6.04394 20.6151 8.35091 23.7727 6.53368C24.1078 6.32748 24.546 6.58524 24.546 6.97188V16.2642C24.546 16.3544 24.4429 18.4165 23.283 20.7622C22.2004 22.9402 19.9578 25.7756 15.4083 26.9742C15.3568 26.9871 15.3181 27 15.2665 27ZM7.03105 16.2513C7.04394 16.3802 7.15993 18.2619 8.20387 20.3497C9.62156 23.1593 11.993 25.0539 15.2665 25.9432C18.5401 25.0539 20.9244 23.1593 22.3421 20.3497C23.3861 18.2619 23.5021 16.3931 23.5149 16.2513V7.79672C20.3702 9.05975 16.9936 7.3843 15.2665 6.15993C13.4622 7.44874 10.1113 9.04687 7.03105 7.79672V16.2513ZM15.2665 21.0972C12.4569 21.0972 10.1757 18.8032 10.1757 15.9936C10.1757 13.1839 12.4569 10.9028 15.2665 10.9028C18.0762 10.9028 20.3702 13.1839 20.3702 15.9936C20.3702 18.8032 18.0762 21.0972 15.2665 21.0972ZM15.2665 11.9338C13.024 11.9338 11.2068 13.751 11.2068 15.9936C11.2068 18.2361 13.024 20.0662 15.2665 20.0662C17.5091 20.0662 19.3392 18.2361 19.3392 15.9936C19.3392 13.751 17.5091 11.9338 15.2665 11.9338Z" fill="#F08D35" stroke="#F08D35" stroke-width="0.3"/>
</svg>
