<svg width="31" height="31" viewBox="0 0 31 31" fill="none" xmlns="http://www.w3.org/2000/svg">
<rect width="31" height="31" fill="white"/>
<path d="M22.7664 13.4832H7.1001L8.66673 9.87996C9.13672 8.78332 10.2334 8 11.4867 8H18.3015C19.5548 8 20.6515 8.78332 21.1998 9.87996L22.7664 13.4832Z" stroke="#F08D35" stroke-width="1.3" stroke-miterlimit="10" stroke-linecap="round" stroke-linejoin="round"/>
<path d="M10.2336 21.3164H5.53369V22.883C5.53369 23.7447 6.23868 24.4497 7.10033 24.4497H8.66696C9.52861 24.4497 10.2336 23.7447 10.2336 22.883V21.3164Z" stroke="#F08D35" stroke-width="1.3" stroke-miterlimit="10" stroke-linecap="round" stroke-linejoin="round"/>
<path d="M4.75 12.6997H7.41328" stroke="#F08D35" stroke-width="1.3" stroke-miterlimit="10" stroke-linecap="round" stroke-linejoin="round"/>
<path d="M22.7661 12.6997H25.1161" stroke="#F08D35" stroke-width="1.3" stroke-miterlimit="10" stroke-linecap="round" stroke-linejoin="round"/>
<path d="M7.1001 17.3999H9.45005" stroke="#F08D35" stroke-width="1.3" stroke-miterlimit="10" stroke-linecap="round" stroke-linejoin="round"/>
<path d="M22.7669 26.7994C25.7952 26.7994 28.2501 24.3445 28.2501 21.3162C28.2501 18.2879 25.7952 15.833 22.7669 15.833C19.7386 15.833 17.2837 18.2879 17.2837 21.3162C17.2837 24.3445 19.7386 26.7994 22.7669 26.7994Z" stroke="#F08D35" stroke-width="1.3" stroke-miterlimit="10" stroke-linecap="round" stroke-linejoin="round"/>
<path d="M22.7661 18.9668V23.6667" stroke="#F08D35" stroke-width="1.3" stroke-miterlimit="10" stroke-linecap="round" stroke-linejoin="round"/>
<path d="M20.416 21.3164H25.1159" stroke="#F08D35" stroke-width="1.3" stroke-miterlimit="10" stroke-linecap="round" stroke-linejoin="round"/>
<path d="M17.7526 19.0445C17.5176 18.4962 16.9693 18.1829 16.3427 18.1829H13.6011C12.9744 18.1829 12.4261 18.4962 12.1911 19.0445L11.0161 21.3161" stroke="#F08D35" stroke-width="1.3" stroke-miterlimit="10" stroke-linecap="round" stroke-linejoin="round"/>
<path d="M17.2831 21.3161H6.31663C5.45499 21.3161 4.75 20.6111 4.75 19.7494V16.6162C4.75 14.8929 6.15997 13.4829 7.88327 13.4829H21.983C23.6279 13.4829 24.9596 14.7362 25.1162 16.3812" stroke="#F08D35" stroke-width="1.3" stroke-miterlimit="10" stroke-linecap="round" stroke-linejoin="round"/>
</svg>
